<?xml version="1.0" encoding="UTF-8"?> <svg xmlns="http://www.w3.org/2000/svg" width="180" height="80" viewBox="0 0 180 80" fill="none"><path fill-rule="evenodd" clip-rule="evenodd" d="M38.408 34.003C38.408 32.7683 38.7608 32.0628 40.1719 32.0628H42.1121V28.7115C41.5829 28.5352 40.5246 28.5352 39.6427 28.5352C35.4095 28.5352 33.9985 30.4754 33.9985 34.1794V36.296H31V40H33.9985V51.112H38.408V40H41.7593L42.1121 36.296H38.408V34.003ZM48.4618 35.9432C44.405 35.9432 42.4648 39.1181 42.4648 43.1749V43.8804C42.4648 48.1135 44.405 51.112 48.4618 51.112C50.7548 51.112 51.9894 50.0537 52.695 48.6427V50.9357H56.9281V36.296H52.695V38.5889C51.9894 37.0015 50.7548 35.9432 48.4618 35.9432ZM49.6965 47.9372C47.7563 47.9372 46.8744 46.3497 46.8744 44.2331V43.1749C46.8744 41.0583 47.7563 39.4708 49.6965 39.6472C51.6367 39.6472 52.5186 40.8819 52.5186 42.9985V44.5859C52.5186 46.5261 51.4603 47.9372 49.6965 47.9372ZM66.2758 36.1196C68.0396 36.1196 69.6271 36.4724 70.509 37.1779L69.4507 40.3528C68.7452 40 67.6869 39.6473 66.4522 39.6473C63.9829 39.6473 62.9246 41.0583 62.9246 43.3513V44.2332C62.9246 46.5262 63.9829 47.9372 66.4522 47.9372C67.6869 47.9372 68.7452 47.5844 69.4507 47.2317L70.509 50.4066C69.6271 51.1121 68.0396 51.4648 66.2758 51.4648C60.9844 51.4648 58.6914 48.6427 58.6914 44.2332V43.3513C58.6914 38.7654 60.9844 36.1196 66.2758 36.1196ZM71.0391 42.9985V44.2332C71.0391 48.6427 73.1556 51.2885 78.9762 51.2885C81.0928 51.2885 83.3858 50.7593 84.6205 50.2302L83.7386 47.2317C82.3275 47.7608 80.5637 48.1136 78.9762 48.1136C76.5069 48.1136 75.625 47.2317 75.4486 45.2915H84.7969V42.9985C84.7969 38.9417 82.8566 36.1196 78.2707 36.1196C73.332 36.1196 71.0391 38.7654 71.0391 42.9985ZM80.7401 41.9402V42.293H75.4486C75.4486 40.3528 76.3305 39.1181 78.0943 39.1181C80.0345 39.1181 80.7401 40.3528 80.7401 41.9402ZM101.376 44.2331C101.376 48.2899 99.4358 51.4648 95.379 51.4648C93.0861 51.4648 91.675 50.4065 90.9695 48.9955V51.2884H86.7363V28.8879L91.1459 28.5352V38.4125C91.8514 37.1779 93.2625 36.1196 95.2027 36.1196C99.2594 36.1196 101.2 39.1181 101.2 43.3512L101.376 44.2331ZM96.9665 43.1749C96.9665 41.0583 96.0846 39.6472 93.968 39.6472C92.2042 39.6472 91.1459 40.8819 91.1459 42.9985V44.4095C91.1459 46.5261 92.2042 47.7608 93.968 47.7608C96.0846 47.7608 96.9665 46.1733 96.9665 44.2331V43.1749ZM102.787 43.3513V44.0568C102.787 48.29 105.256 51.2885 110.195 51.2885C114.957 51.2885 117.427 48.29 117.427 44.0568V43.3513C117.427 39.1181 114.957 36.1196 110.019 36.1196C105.256 36.1196 102.787 39.1181 102.787 43.3513ZM110.195 39.4709C112.135 39.4709 113.017 41.0583 113.017 42.9985V44.4096C113.017 46.3498 112.312 47.9372 110.195 47.9372C108.255 47.9372 107.373 46.3498 107.373 44.4096V42.9985C107.373 41.0583 108.079 39.4709 110.195 39.4709ZM118.838 44.0568V43.3513C118.838 39.1181 121.307 36.1196 126.07 36.1196C131.008 36.1196 133.301 39.1181 133.301 43.3513V44.0568C133.301 48.29 130.832 51.2885 126.07 51.2885C121.307 51.2885 118.838 48.29 118.838 44.0568ZM129.068 42.9985C129.068 41.0583 128.186 39.4709 126.246 39.4709C124.129 39.4709 123.424 41.0583 123.424 42.9985V44.4096C123.424 46.3498 124.306 47.9372 126.246 47.9372C128.363 47.9372 129.068 46.3498 129.068 44.4096V42.9985ZM144.061 36.296L139.652 43.3512V28.5352L135.242 28.8879V51.112H139.652V43.8804L144.238 51.112H149L144.061 43.5276L148.824 36.296H144.061Z" fill="gray"></path></svg> 