<?xml version="1.0" encoding="UTF-8"?> <svg xmlns="http://www.w3.org/2000/svg" width="180" height="80" viewBox="0 0 180 80" fill="none"><path fill-rule="evenodd" clip-rule="evenodd" d="M46.2875 34.3065V38.4651H56.1283C55.8262 40.7627 55.0616 42.4462 53.8958 43.6262C52.461 45.0796 50.2238 46.6816 46.2875 46.6816C40.2225 46.6816 35.4791 41.7316 35.4791 35.592C35.4791 29.4524 40.2225 24.5023 46.2875 24.5023C49.5583 24.5023 51.9465 25.807 53.7117 27.481L56.6192 24.5407C54.1601 22.1616 50.8893 20.3341 46.2922 20.3341C37.9853 20.3341 31 27.1788 31 35.592C31 44.0051 37.9853 50.8546 46.2922 50.8546C50.7713 50.8546 54.1554 49.3677 56.8032 46.5761C59.5266 43.8229 60.3714 39.952 60.3714 36.8247C60.3714 35.8941 60.3006 35.0356 60.1637 34.3065H46.2875ZM129.303 50.2599V21.4565H125.145V50.2599H129.303ZM71.7604 50.8594C77.1268 50.8594 81.4974 46.6912 81.4974 41.0313C81.4974 35.333 77.1268 31.2031 71.7604 31.2031C66.394 31.2031 62.0234 35.3713 62.0234 41.0313C62.0234 46.6912 66.394 50.8594 71.7604 50.8594ZM71.7604 35.0739C74.7009 35.0739 77.2354 37.4962 77.2354 41.0313C77.2354 44.528 74.7009 46.9886 71.7604 46.9886C68.82 46.9886 66.2854 44.5711 66.2854 41.0313C66.2854 37.4914 68.82 35.0739 71.7604 35.0739ZM92.7624 50.8594C98.1288 50.8594 102.499 46.6912 102.499 41.0313C102.499 35.333 98.1288 31.2031 92.7624 31.2031C87.3959 31.2031 83.0254 35.3713 83.0254 41.0313C83.0254 46.6912 87.3959 50.8594 92.7624 50.8594ZM92.7624 35.0739C95.7028 35.0739 98.2373 37.4962 98.2373 41.0313C98.2373 44.528 95.7028 46.9886 92.7624 46.9886C89.8219 46.9886 87.2874 44.5711 87.2874 41.0313C87.2874 37.4914 89.8219 35.0739 92.7624 35.0739ZM122.631 31.7979V31.8027H118.586V33.4047H118.435C117.477 32.2488 115.636 31.2079 113.323 31.2079C108.471 31.2079 104.025 35.5584 104.025 41.0696C104.025 46.5809 108.471 50.8594 113.323 50.8594C115.641 50.8594 117.481 49.8186 118.435 48.6242H118.586V50.0392C118.586 53.7997 116.604 55.7999 113.404 55.7999C110.794 55.7999 109.175 53.9148 108.514 52.3128L104.804 53.8765C105.871 56.481 108.703 59.6659 113.408 59.6659C118.402 59.6659 122.631 56.7016 122.631 49.4444V31.8027H122.636L122.631 31.7979ZM118.883 41.0649C118.883 37.6017 116.604 35.0739 113.701 35.0739C110.798 35.0739 108.297 37.6065 108.297 41.0649C108.297 44.5232 110.76 46.9838 113.701 46.9838C116.641 46.9838 118.883 44.4896 118.883 41.0649ZM145.503 44.269L148.812 46.5041C147.745 48.1062 145.173 50.8594 140.727 50.8594C135.214 50.8594 131.094 46.5425 131.094 41.0313C131.094 35.1843 135.247 31.2031 140.25 31.2031C145.253 31.2031 147.75 35.261 148.557 37.4578L149.001 38.5754L136.026 44.0147C137.017 45.9861 138.565 46.9934 140.732 46.9934C142.898 46.9934 144.408 45.9142 145.508 44.2737L145.503 44.269ZM135.318 40.7339L143.993 37.0885C143.516 35.8606 142.081 35.0068 140.392 35.0068C138.225 35.0068 135.209 36.9446 135.318 40.7387V40.7339Z" fill="gray"></path></svg> 