<?xml version="1.0" encoding="UTF-8"?> <svg xmlns="http://www.w3.org/2000/svg" width="64" height="64" viewBox="0 0 64 64" fill="none"><g clip-path="url(#clip0_1393_4518)"><path d="M32 34C32 37.866 25.732 41 18 41C10.268 41 4 37.866 4 34C4 30.134 10.268 27 18 27C25.732 27 32 30.134 32 34Z" stroke="#2C2D2C" stroke-width="2"></path><path d="M31.9256 48C29.7587 50.9962 24.3076 53.1219 17.9256 53.1219C11.6154 53.1219 6.21529 51.0438 4 48.1008" stroke="#2C2D2C" stroke-width="2" stroke-linecap="round"></path><path d="M31.9256 42C29.7587 44.9962 24.3076 47.1219 17.9256 47.1219C11.6154 47.1219 6.21529 45.0438 4 42.1008" stroke="#2C2D2C" stroke-width="2" stroke-linecap="round"></path><path d="M43.293 7.70711L27.7073 23.2929C27.0773 23.9229 27.5235 25 28.4144 25L35 25C35.5523 25 36.0002 25.4477 36.0002 26L36.0002 51C36.0002 52.1046 36.8956 53 38.0002 53L50.0002 53C51.1047 53 52.0002 52.1046 52.0002 51L52.0002 26C52.0002 25.4477 52.4479 25 53.0002 25H59.5859C60.4768 25 60.923 23.9229 60.293 23.2929L44.7073 7.70711C44.3167 7.31659 43.6836 7.31658 43.293 7.70711Z" stroke="#2C2D2C" stroke-width="2"></path></g><defs><clipPath id="clip0_1393_4518"><rect width="64" height="64" fill="white"></rect></clipPath></defs></svg> 