<?xml version="1.0" encoding="UTF-8"?> <svg xmlns="http://www.w3.org/2000/svg" width="180" height="80" viewBox="0 0 180 80" fill="none"><path fill-rule="evenodd" clip-rule="evenodd" d="M39.7642 26H27V39.3H39.7642V26ZM79.4002 31.5999V48.3999H76.601V35.2166H76.5637L71.5625 48.3999H69.6964L64.5833 35.2166H64.5459V48.3999H61.9707V31.5999H66.0015L70.6295 44.0444H70.7041L75.5933 31.5999H79.4002ZM81.7142 32.8832C81.7142 32.4166 81.8635 32.0277 82.1994 31.7166C82.5353 31.4055 82.9085 31.2499 83.3564 31.2499C83.8416 31.2499 84.2521 31.4055 84.5507 31.7166C84.8493 32.0277 85.0359 32.4166 85.0359 32.8832C85.0359 33.3499 84.8866 33.7388 84.5507 34.0499C84.2148 34.361 83.8416 34.5166 83.3564 34.5166C82.8712 34.5166 82.498 34.361 82.1994 34.0499C81.9008 33.6999 81.7142 33.311 81.7142 32.8832ZM84.7373 36.3444V48.3999H82.0128V36.3444H84.7373ZM92.9855 46.3388C93.3961 46.3388 93.8439 46.261 94.3291 46.0277C94.8143 45.8333 95.2622 45.561 95.6727 45.2499V47.8944C95.2249 48.1666 94.7397 48.361 94.1798 48.4777C93.62 48.5944 93.0228 48.6721 92.351 48.6721C90.6342 48.6721 89.2533 48.1277 88.2083 46.9999C87.1259 45.8721 86.6034 44.4333 86.6034 42.7221C86.6034 40.7777 87.1632 39.1832 88.2456 37.9388C89.3279 36.6944 90.8581 36.0721 92.8736 36.0721C93.3961 36.0721 93.9186 36.1499 94.4038 36.2666C94.9263 36.3832 95.3368 36.5777 95.6354 36.7332V39.4555C95.2249 39.1444 94.777 38.8721 94.3664 38.7166C93.9186 38.561 93.4707 38.4444 93.0228 38.4444C91.9405 38.4444 91.0821 38.7944 90.4103 39.5332C89.7385 40.2721 89.4399 41.2444 89.4399 42.4888C89.4399 43.6944 89.7758 44.6666 90.4103 45.3277C91.0448 45.9888 91.9032 46.3388 92.9855 46.3388ZM103.398 36.1499C103.622 36.1499 103.809 36.1499 103.996 36.1888C104.182 36.2277 104.331 36.2666 104.443 36.3055V39.1832C104.294 39.0666 104.108 38.9499 103.809 38.8721C103.51 38.7944 103.212 38.7166 102.801 38.7166C102.129 38.7166 101.57 39.0277 101.122 39.611C100.674 40.1944 100.413 41.0888 100.413 42.3333V48.3999H97.6881V36.3444H100.413V38.2499H100.45C100.711 37.5888 101.084 37.0832 101.57 36.6944C102.092 36.3444 102.689 36.1499 103.398 36.1499ZM104.593 42.5666C104.593 40.5832 105.153 38.9888 106.198 37.8221C107.28 36.6555 108.773 36.0721 110.676 36.0721C112.468 36.0721 113.886 36.6166 114.894 37.7444C115.901 38.8721 116.424 40.3888 116.424 42.2944C116.424 44.2388 115.864 45.7944 114.819 46.961C113.737 48.1277 112.281 48.711 110.415 48.711C108.624 48.711 107.205 48.1666 106.16 47.0777C105.115 45.9499 104.593 44.4332 104.593 42.5666ZM107.429 42.4499C107.429 43.6944 107.69 44.6666 108.25 45.3277C108.81 45.9888 109.594 46.3388 110.602 46.3388C111.572 46.3388 112.356 46.0277 112.878 45.3277C113.401 44.6666 113.662 43.6944 113.662 42.3721C113.662 41.0888 113.401 40.1166 112.878 39.4166C112.356 38.7555 111.572 38.4055 110.639 38.4055C109.631 38.4055 108.885 38.7555 108.325 39.4555C107.69 40.1944 107.429 41.1666 107.429 42.4499ZM120.492 39.5332C120.492 39.9221 120.604 40.2721 120.865 40.5055C121.127 40.7388 121.649 41.011 122.507 41.361C123.59 41.8277 124.374 42.3333 124.784 42.8777C125.232 43.461 125.456 44.1221 125.456 44.9388C125.456 46.0666 125.045 46.961 124.187 47.661C123.366 48.361 122.209 48.6721 120.791 48.6721C120.305 48.6721 119.783 48.5944 119.186 48.4777C118.589 48.361 118.103 48.2055 117.693 48.011V45.211C118.178 45.561 118.738 45.8721 119.298 46.0666C119.858 46.261 120.38 46.3777 120.865 46.3777C121.462 46.3777 121.948 46.2999 122.209 46.1055C122.507 45.911 122.657 45.6388 122.657 45.211C122.657 44.8221 122.507 44.511 122.209 44.1999C121.91 43.9277 121.313 43.6166 120.492 43.2666C119.484 42.8388 118.775 42.3332 118.365 41.7888C117.954 41.2444 117.73 40.5444 117.73 39.6888C117.73 38.5999 118.141 37.7055 118.962 37.0055C119.783 36.3055 120.865 35.9555 122.172 35.9555C122.582 35.9555 123.03 35.9944 123.515 36.111C124 36.2277 124.448 36.3444 124.784 36.461V39.2221C124.411 38.9888 124 38.7555 123.515 38.561C123.03 38.3666 122.545 38.2888 122.097 38.2888C121.574 38.2888 121.164 38.4055 120.903 38.5999C120.641 38.8721 120.492 39.1444 120.492 39.5332ZM126.613 42.5666C126.613 40.5832 127.173 38.9888 128.218 37.8221C129.3 36.6555 130.793 36.0721 132.696 36.0721C134.488 36.0721 135.906 36.6166 136.914 37.7444C137.922 38.8721 138.444 40.3888 138.444 42.2944C138.444 44.2388 137.884 45.7944 136.839 46.961C135.757 48.1277 134.301 48.711 132.435 48.711C130.644 48.711 129.225 48.1666 128.18 47.0777C127.173 45.9499 126.613 44.4332 126.613 42.5666ZM129.449 42.4499C129.449 43.6944 129.711 44.6666 130.27 45.3277C130.83 45.9888 131.614 46.3388 132.622 46.3388C133.592 46.3388 134.376 46.0277 134.898 45.3277C135.421 44.6666 135.682 43.6944 135.682 42.3721C135.682 41.0888 135.421 40.1166 134.898 39.4166C134.376 38.7555 133.592 38.4055 132.659 38.4055C131.651 38.4055 130.905 38.7555 130.345 39.4555C129.748 40.1944 129.449 41.1666 129.449 42.4499ZM147.513 38.6777H143.445V48.3999H140.683V38.6777H138.743V36.3444H140.683V34.6721C140.683 33.4277 141.094 32.3777 141.878 31.561C142.661 30.7444 143.669 30.3555 144.901 30.3555C145.079 30.3555 145.247 30.3664 145.405 30.3767C145.543 30.3858 145.674 30.3944 145.797 30.3944C146.058 30.3944 146.282 30.4721 146.468 30.5499V32.9999C146.394 32.961 146.207 32.8832 145.983 32.8055C145.759 32.7277 145.498 32.6888 145.199 32.6888C144.64 32.6888 144.192 32.8832 143.893 33.2332C143.595 33.5832 143.445 34.1666 143.445 34.8666V36.3055H147.513V33.5832L150.238 32.7277V36.3055H153V38.6388H150.238V44.2777C150.238 45.0166 150.387 45.5221 150.611 45.8333C150.872 46.1444 151.283 46.2999 151.843 46.2999C151.992 46.2999 152.179 46.261 152.403 46.1833C152.627 46.1055 152.813 46.0277 152.962 45.911V48.2444C152.776 48.361 152.515 48.4388 152.104 48.5166C151.693 48.5944 151.32 48.6333 150.91 48.6333C149.753 48.6333 148.894 48.3221 148.334 47.6999C147.775 47.0777 147.476 46.1055 147.476 44.8221L147.513 38.6777ZM41.1074 26H53.8716V39.3H41.1074V26ZM39.7642 40.7001H27V54.0001H39.7642V40.7001ZM41.1074 40.7001H53.8716V54.0001H41.1074V40.7001Z" fill="gray"></path></svg> 