<?xml version="1.0" encoding="UTF-8"?> <svg xmlns="http://www.w3.org/2000/svg" width="180" height="80" viewBox="0 0 180 80" fill="gray"><g clip-path="url(#clip0_564_4298)"><path fill-rule="evenodd" clip-rule="evenodd" d="M38.61 40.3783C38.61 40.219 38.6156 39.9062 38.6156 39.9062C33.9395 39.1685 30.5602 37.1444 30.4668 34.7646C29.3155 36.2079 28.6623 37.8607 28.6623 39.6218C28.6623 44.804 34.3218 49.0502 41.5153 49.4286C39.8488 48.3728 38.61 44.7192 38.61 40.3783ZM26.5 39.9999C26.5 34.2014 33.679 29.5 42.5354 29.5C51.3915 29.5 58.5707 34.2014 58.5707 39.9999C58.5707 45.7985 51.3914 50.5 42.5354 50.5C33.679 50.5 26.5 45.7983 26.5 39.9999ZM46.239 37.2566C49.566 36.7334 51.8949 35.5329 51.8949 34.136C51.8949 32.2611 47.704 30.7429 42.5354 30.7429C37.3663 30.7429 33.1759 32.2612 33.1759 34.136C33.1759 35.5329 35.5043 36.7334 38.8317 37.2566C39.3715 33.6222 40.8261 31.0154 42.5354 31.0154C44.245 31.0154 45.6993 33.6221 46.239 37.2566ZM43.5555 49.4285C50.7487 49.0502 56.4089 44.8039 56.4089 39.6217C56.4089 37.8607 55.7549 36.2079 54.6037 34.7645C54.5101 37.1442 51.1317 39.1684 46.4551 39.9061C46.4551 39.9061 46.461 40.2189 46.461 40.3782C46.461 44.7191 45.2213 48.3727 43.5555 49.4285H43.5555ZM44.7578 37.4343C44.4028 35.1032 43.5416 33.4577 42.5354 33.4577C41.5291 33.4577 40.6681 35.1032 40.3126 37.4343C41.8145 37.5582 43.2945 37.5602 44.7578 37.4343ZM40.1392 40.0959C40.198 43.4715 41.2477 46.1639 42.5354 46.1639C43.8225 46.1639 44.8724 43.4716 44.9319 40.0959C43.2868 40.2396 41.6808 40.2395 40.1392 40.0959Z" fill="white"></path><path fill-rule="evenodd" clip-rule="evenodd" d="M98.887 47.6607H102.299V41.9147L108.167 32.5283H104.239L100.593 38.8888L96.9468 32.5283H93.0177L98.887 41.9147V47.6607ZM76.8938 40C76.8938 35.568 80.4689 31.975 84.8788 31.975C89.2883 31.975 92.8631 35.5679 92.8631 40C92.8631 44.4325 89.2883 48.025 84.8788 48.025C80.4689 48.025 76.8938 44.4325 76.8938 40ZM84.8788 45.0823C87.3403 45.0823 89.3366 42.8066 89.3366 40C89.3366 37.1935 87.3404 34.9175 84.8788 34.9175C82.4169 34.9175 80.4205 37.1935 80.4205 40C80.4205 42.8065 82.4169 45.0823 84.8788 45.0823ZM71.3406 47.6607H67.9766V35.3186H63.2832V32.5283H76.0334V35.3186H71.3406V47.6607ZM142.113 44.256L140.819 47.6607H136.891L143.102 32.5282H147.288L153.5 47.6607H149.57L148.277 44.256L142.113 44.256ZM145.21 36.1641H145.181L143.078 41.7023H147.311L145.21 36.1641ZM133.351 47.6607H129.987V35.3186H125.293V32.5283H138.043V35.3186H133.351V47.6607ZM108.323 40C108.323 35.568 111.898 31.975 116.306 31.975C120.717 31.975 124.292 35.5679 124.292 40C124.292 44.4325 120.717 48.025 116.306 48.025C111.898 48.025 108.323 44.4325 108.323 40ZM116.306 45.0823C118.769 45.0823 120.765 42.8066 120.765 40C120.765 37.1935 118.769 34.9175 116.306 34.9175C113.845 34.9175 111.849 37.1935 111.849 40C111.849 42.8065 113.845 45.0823 116.306 45.0823Z" fill="white"></path></g><defs><clipPath id="clip0_564_4298"><rect width="127" height="21" fill="gray" transform="translate(26.5 29.5)"></rect></clipPath></defs></svg> 